<svg xmlns="http://www.w3.org/2000/svg" width="800" height="800" viewBox="0 -.5 25 25">
    <path fill="currentColor" d="M8.25005 8.5c0 .41421.33579.75.75.75s.75-.33579.75-.75zm.75-.233h.75001l-.00002-.00417zm.93887-2.30268.53328.52739zM12.2311 5v-.75001l-.0042.00002zm4.0379 0 .0042-.75h-.0042zm2.2922.96432-.5333.52739zM19.5 8.267l-.75-.00417V8.267zm0 3.966h-.75l.0001.0042zm-.9388 2.3027-.5333-.5274zM16.269 15.5v.75h.0042zM16 14.75c-.4142 0-.75.3358-.75.75s.3358.75.75.75zm-6.99995-5.5c.41421 0 .75-.33579.75-.75s-.33579-.75-.75-.75zm-.269-.75v-.75001l-.00414.00002zm-2.29213.96432.53326.52739zM5.50005 11.767h.75001l-.00002-.0042zm0 3.967.75.0039v-.0039zM8.73105 19l-.00414.75h.00414zm4.03795 0v.75h.0042zm2.2922-.9643-.5333-.5274zM16 15.733h-.75l.0001.0042zm.75-.233c0-.4142-.3357-.75-.75-.75-.4142 0-.75.3358-.75.75zM9.00005 7.75c-.41421 0-.75.33579-.75.75s.33579.75.75.75zm3.76905.75.0041-.75h-.0041zm2.2921.96432.5332-.52738zm.9389 2.30268-.75-.0042v.0042zm-.75 3.733c0 .4142.3357.75.75.75.4142 0 .75-.3358.75-.75zm-5.50005-7v-.233h-1.5V8.5zm-.00001-.23717c-.00368-.66278.25606-1.29987.72216-1.77112L9.40566 5.43694c-.74581.75412-1.16149 1.77362-1.1556 2.83423zm.72216-1.77112c.466-.47125 1.1002-.73806 1.763-.74172l-.0083-1.49998c-1.0606.00586-2.0754.43281-2.82124 1.18693zM12.2311 5.75h4.0379v-1.5h-4.0379zm4.0338-.00001c.6628.00366 1.297.27047 1.763.74172l1.0665-1.05477c-.7458-.75412-1.7606-1.18107-2.8212-1.18693zm1.763.74172c.4661.47125.7258 1.10834.7222 1.77112l1.4999.00834c.0059-1.06061-.4098-2.08011-1.1556-2.83423zM18.75 8.267v3.966h1.5V8.267zm.0001 3.9702c.0036.6627-.2561 1.2998-.7222 1.7711l1.0665 1.0548c.7458-.7542 1.1615-1.7737 1.1556-2.8343zm-.7222 1.7711c-.466.4712-1.1002.738-1.763.7417l.0083 1.5c1.0606-.0059 2.0754-.4328 2.8212-1.1869zm-1.7589.7417H16v1.5h.269zm-7.26895-7h-.269v1.5h.269zm-.27314.00001c-1.06061.00586-2.07545.43281-2.82125 1.18693l1.06652 1.05477c.46606-.47125 1.10023-.73806 1.76301-.74172zM5.90566 8.93694c-.74581.75412-1.16149 1.77366-1.1556 2.83426l1.49998-.0084c-.00368-.6627.25608-1.2998.72214-1.77109zM4.75005 11.767v3.967h1.5v-3.967zm.00001 3.9631c-.01159 2.2081 1.76873 4.0077 3.97685 4.0199l.00829-1.5c-1.37987-.0076-2.4924-1.1322-2.48516-2.5121zM8.73105 19.75H12.769v-1.5H8.73105zm4.04215 0c1.0606-.0059 2.0754-.4328 2.8212-1.1869l-1.0665-1.0548c-.466.4712-1.1002.738-1.763.7417zm2.8212-1.1869c.7458-.7542 1.1615-1.7737 1.1556-2.8343l-1.4999.0084c.0036.6627-.2561 1.2998-.7222 1.7711zM16.75 15.733V15.5h-1.5v.233zM9.00005 9.25h3.76905v-1.5H9.00005zm3.76485-.00001c.6628.00366 1.297.27047 1.763.74172l1.0665-1.05477c-.7458-.75412-1.7606-1.18107-2.8212-1.18693zm1.763.74172c.4661.47129.7258 1.10839.7222 1.77109l1.4999.0084c.0059-1.0606-.4098-2.08014-1.1556-2.83426zm.7222 1.77529V15.5h1.5v-3.733z"/>
</svg>
