<svg xmlns="http://www.w3.org/2000/svg" width="800" height="800" fill="none" viewBox="0 0 24 24">
    <path stroke="currentColor" stroke-linecap="round" stroke-width="2" d="M4 4a1 1 0 0 1 1-1h9.586a1 1 0 0 1 .707.293l4.414 4.414a1 1 0 0 1 .293.707V20a1 1 0 0 1-1 1H5a1 1 0 0 1-1-1z"/>
    <path stroke="currentColor" stroke-linecap="round" stroke-linejoin="round" stroke-width="2" d="M20 8h-5V3"/>
    <path stroke="currentColor" stroke-linecap="round" stroke-linejoin="round" stroke-width="1.5" d="M11.5 13H11v4h.5a2 2 0 1 0 0-4M15.5 17v-4h2M16 15h1M7 17v-1.5m0 0V13h.75c.69 0 1.25.56 1.25 1.25v0c0 .69-.56 1.25-1.25 1.25z"/>
</svg>
